SubjData_BottomUpwalk_36
version=1
nRows=66
nColumns=19
inDegrees=no
endheader
time	l_ground_force_vx	l_ground_force_vy	l_ground_force_vz	l_ground_force_px	l_ground_force_py	l_ground_force_pz	ground_force_vx	ground_force_vy	ground_force_vz	ground_force_px	ground_force_py	ground_force_pz	l_ground_torque_x	l_ground_torque_y	l_ground_torque_z	ground_torque_x	ground_torque_y	ground_torque_z	
0	0	0	0	0	0	0	36.8909052678186	547.707671770588	-22.4559592102679	-0.0404220849475134	0	0.056496927570986	0	0	0	0	10.4551422466972	0
0.01	0	0	0	0	0	0	43.6306226393239	561.009291540161	-23.3587670148908	-0.0491173718067917	0	0.056939832003879	0	0	0	0	11.2825004073759	0
0.02	0	0	0	0	0	0	50.4628229468382	571.635337637879	-23.4764402323996	-0.0577034584095264	0	0.0572041888702458	0	0	0	0	12.039627277212	0
0.03	0	0	0	0	0	0	56.9474898605537	578.488021364152	-23.0173723512809	-0.0657260034852622	0	0.0572284414185375	0	0	0	0	12.5904408895407	0
0.04	0	0	0	0	0	0	62.9762118660571	581.093632016243	-22.4057597324543	-0.0730322244615288	0	0.0571048353078894	0	0	0	0	12.8897689661228	0
0.05	13.8002224243524	34.8395863497929	0.374644770776392	0.27689312753573	0	-0.0291979376516023	68.5521337273252	579.27811595369	-21.7792954325801	-0.0797413012246205	0	0.0568466417881642	0	19.213744937179	0	0	12.8795640153133	0
0.06	22.4796866540998	64.0223260472592	-1.26315596904599	0.278536697007828	0	-0.0409419823800932	73.6759279400819	573.301882853391	-20.7743761411794	-0.0862238833423076	0	0.0565793509901301	0	32.0081003226183	0	0	12.7372206646192	0
0.07	25.9435412889065	97.1896432936563	-4.10184016851258	0.273040041588396	0	-0.0438531657651982	78.2632233109016	563.236841344106	-19.1927455244178	-0.0929882535074273	0	0.0563855722770753	0	38.6588238012543	0	0	12.6022586692092	0
0.08	23.4623923433567	133.949269783001	-7.40489504582295	0.268252237523768	0	-0.0445586614416188	82.4563313403166	548.652203451608	-16.9959210244978	-0.100386399012859	0	0.0562759908236865	0	37.8515087868461	0	0	12.5720711988999	0
0.09	15.7569252470678	176.116280470271	-10.0789489135447	0.265578826584084	0	-0.0451812379630885	86.2118532068834	528.455577456	-14.3399970679098	-0.10829314599825	0	0.056073335329405	0	30.3514903793757	0	0	12.6706365684539	0
0.1	2.80435328496515	225.845799845507	-10.6582629939884	0.265517267539203	0	-0.046088496160249	88.8760404690883	501.349779402423	-11.4239333342161	-0.116360520138284	0	0.0557771332477731	0	15.9275633923084	0	0	12.6508835130877	0
0.11	-14.1762689429008	283.948427830049	-8.68472017083625	0.267725463358006	0	-0.0472460069311032	89.5106703883614	466.181098181641	-8.26484923380683	-0.124162096742101	0	0.0554420283359146	0	-3.95788689421405	0	0	12.4021286910264	0
0.12	-33.0677511575426	345.110706298212	-4.86701890159943	0.270418988061539	0	-0.0483000635870794	87.3825095674971	422.394622635535	-4.62696295648096	-0.131433892690127	0	0.0552004642451535	0	-26.589112203445	0	0	11.9620104124812	0
0.13	-50.2819321867351	398.67916593359	-0.520588322083292	0.271806103348903	0	-0.0491950802335329	81.7428990983031	370.375182491767	-0.548594575484674	-0.138468176503949	0	0.0549979072027985	0	-47.4002761088569	0	0	11.2776888983719	0
0.14	-62.8079323049296	436.521032956	4.29110368834921	0.271020444895905	0	-0.0501193201399953	72.5064059758874	312.182105600267	3.23504657353699	-0.145944264507394	0	0.0546686366204263	0	-62.7807888314483	0	0	10.4588292748756	0
0.15	-70.3239252433642	459.158877394898	10.2544809165077	0.267634183538927	0	-0.0513598824335578	60.5377490413388	251.593084319868	5.83126847397006	-0.15443460239062	0	0.0540520914279284	0	-72.6190629438225	0	0	9.4936113086277	0
0.16	-74.2068311564812	472.986069033212	17.1830110712515	0.261954970706194	0	-0.0529339442258264	47.5905867588409	193.23669718281	6.68920783411092	-0.163935442896012	0	0.0531484427594982	0	-78.3935826686609	0	0	8.19807657403677	0
0.17	-75.7997252354028	484.255373453968	23.8611159593456	0.254906962815849	0	-0.054544156504135	35.5160997407323	140.970825466292	5.76857984980558	-0.174429785889908	0	0.0518711461295614	0	-81.281211748059	0	0	6.56261139507071	0
0.18	-76.1848103948924	496.489535553972	29.1973121578473	0.24750287638634	0	-0.0558235820022937	25.4154689951172	97.0769090327195	3.62329264320038	-0.186742145075448	0	0.0498416077401683	0	-82.2931236764184	0	0	4.77065509498272	0
0.19	-76.3259961000431	510.564405262016	32.8111451706991	0.240490095674127	0	-0.0564455334946207	17.383230152398	62.5315124117466	1.21121175528021	-0.203507334283047	0	0.0465642786644488	0	-82.3964696507669	0	0	3.10457160499308	0
0.2	-76.2040891401032	525.901914735793	34.7815868626395	0.233800134980409	0	-0.0563793570482006	11.2911728647132	37.0899228492278	-0.569844825495347	-0.229586985970816	0	0.0409077153185997	0	-81.7042312522781	0	0	1.72737098461099	0
0.21	-75.1220643420093	541.454971109149	35.619493482533	0.227199872130169	0	-0.0557722146305951	0	0	0	0	0	0	0	-79.6273796907425	0	0	0	0
0.22	-72.9224489355138	556.46158056273	35.8345836288374	0.22037359264147	0	-0.0549601167760995	0	0	0	0	0	0	0	-76.108671586725	0	0	0	0
0.23	-69.7336920821766	569.937336865067	35.6913721288181	0.213110462523353	0	-0.0542168884871029	0	0	0	0	0	0	0	-71.3808923544789	0	0	0	0
0.24	-65.7483596135176	580.654998760019	35.5336294074745	0.205467596065074	0	-0.0536870171115716	0	0	0	0	0	0	0	-65.7226974355279	0	0	0	0
0.25	-61.1584924090258	587.617968700178	35.7653160686449	0.19775286136677	0	-0.0533820867053006	0	0	0	0	0	0	0	-59.5174992741643	0	0	0	0
0.26	-56.4650316621596	590.471937351561	36.2955807885403	0.190251175491024	0	-0.0532629689385043	0	0	0	0	0	0	0	-53.6039119744762	0	0	0	0
0.27	-52.4047744217691	589.548817765783	36.6779407497146	0.183250924713331	0	-0.0532837878691513	0	0	0	0	0	0	0	-48.8026431749972	0	0	0	0
0.28	-49.3264557828977	585.567552126339	36.5189416878035	0.176866667795641	0	-0.0534383123429731	0	0	0	0	0	0	0	-45.2789613910193	0	0	0	0
0.29	-46.9309830708966	578.988869704077	35.6789392714089	0.170976804221583	0	-0.0535892201379257	0	0	0	0	0	0	0	-42.3834211223101	0	0	0	0
0.3	-44.5851531348817	570.34253349907	34.3066030464074	0.165404137775136	0	-0.0536937090548038	0	0	0	0	0	0	0	-39.3113779161431	0	0	0	0
0.31	-42.0780595568715	560.314708536524	32.6996187498474	0.159860377084441	0	-0.0537665461782718	0	0	0	0	0	0	0	-35.8854186101357	0	0	0	0
0.32	-39.2544223430855	549.762787571724	30.964247466783	0.153825809088726	0	-0.0538502660081012	0	0	0	0	0	0	0	-32.0548191980287	0	0	0	0
0.33	-36.1211762737363	539.543492717676	29.2024150662719	0.147110046393131	0	-0.0539576088390076	0	0	0	0	0	0	0	-28.0100664705301	0	0	0	0
0.34	-32.7165542371712	530.254554410843	27.6945457400879	0.139930568132917	0	-0.0540097645107875	0	0	0	0	0	0	0	-23.7429644355717	0	0	0	0
0.35	-29.3832539183944	522.071785231597	26.4835042597102	0.132772177166691	0	-0.053868647224573	0	0	0	0	0	0	0	-19.6036839548084	0	0	0	0
0.36	-26.6842893671585	514.983368656099	25.5168800512151	0.126104914956843	0	-0.0534248255468728	0	0	0	0	0	0	0	-16.2215770147189	0	0	0	0
0.37	-24.7217978539683	509.080863884525	24.5891147471287	0.119733086007223	0	-0.0526871502440997	0	0	0	0	0	0	0	-13.6796178619876	0	0	0	0
0.38	-23.2874732221303	504.387171918482	23.6784977446727	0.113195803650606	0	-0.0517113252516247	0	0	0	0	0	0	0	-11.7794619137567	0	0	0	0
0.39	-22.0844099423737	500.827538671593	22.820826277723	0.106351835372963	0	-0.0506452646257461	0	0	0	0	0	0	0	-10.1641317156753	0	0	0	0
0.4	-20.9234345983026	498.3920007045	21.9817401398795	0.0991833922444093	0	-0.0495911322763738	0	0	0	0	0	0	0	-8.56758101830808	0	0	0	0
0.41	-19.442559508545	497.164229095021	21.1186132690827	0.0916783369092555	0	-0.0486012637774504	0	0	0	0	0	0	0	-6.67034331353728	0	0	0	0
0.42	-17.3822998885621	497.076236760876	20.3452755109178	0.0839013097674445	0	-0.0476030983718776	0	0	0	0	0	0	0	-4.19426287120099	0	0	0	0
0.43	-14.8821538474261	497.828726613739	19.806920222471	0.0760357447243289	0	-0.0464991764497072	0	0	0	0	0	0	0	-1.03901254448317	0	0	0	0
0.44	-12.590855087478	499.174973423081	19.3760532153985	0.0683935928550487	0	-0.0453135564378914	0	0	0	0	0	0	0	2.07058441692465	0	0	0	0
0.45	-10.7349995560804	500.990677402773	18.8937318378915	0.0611588631245224	0	-0.0441661972155264	0	0	0	0	0	0	0	4.66343518831143	0	0	0	0
0.46	-9.04487815149668	503.154432779152	18.1659696332811	0.0541520206536286	0	-0.0430824666360212	0	0	0	0	0	0	0	6.8964597949904	0	0	0	0
0.47	-6.97202888694226	505.834390437625	17.0373182601999	0.0470305883439784	0	-0.0421830404572043	0	0	0	0	0	0	0	9.50504225383934	0	0	0	0
0.48	-4.31716089638005	509.143886927763	15.6059179877609	0.0397651407307451	0	-0.0414890497835377	0	0	0	0	0	0	0	12.8728394281851	0	0	0	0
0.49	-0.939199743777124	513.151865106765	14.0776515605594	0.0324208080968462	0	-0.0410100716589522	0	0	0	0	0	0	0	17.158751965382	0	0	0	0
0.5	3.10991289625336	517.894531758198	12.7671973843755	0.0250671188951862	0	-0.0407931183985522	0	0	0	0	0	0	0	22.3515861965838	0	0	0	0
0.51	7.81068336993251	523.397075658346	11.7697105557971	0.017432023036176	0	-0.0409247428228861	0	0	0	0	0	0	0	28.4014383607272	0	0	0	0
0.52	12.8950476922716	529.579845005038	11.2221686817716	0.00943909352045454	0	-0.041333401072568	0	0	0	0	0	0	0	34.9393746085722	0	0	0	0
0.53	17.7665830387576	536.241959450224	11.3490473612119	0.00131613606788917	0	-0.0419568235883483	0	0	0	0	0	0	0	41.3946602018056	0	0	0	0
0.54	22.2755650435578	543.225224821397	12.3277055195575	-0.00672632244629304	0	-0.0427968280580166	0	0	0	0	0	0	0	47.5843233724021	0	0	0	0
0.55	26.7271802499024	550.324718860358	13.9078335086866	-0.0147387709788213	0	-0.0438800107026291	0	0	0	0	0	0	0	53.8254793904234	0	0	0	0
0.56	31.3165598795896	557.098429884133	15.7335956521169	-0.0228863429134021	0	-0.0451026175627249	0	0	0	0	0	0	0	60.4285274445426	0	0	0	0
0.57	35.9780063287311	563.318803409615	17.6221855892698	-0.0313024343677358	0	-0.0463936961272482	0	0	0	0	0	0	0	67.2959720229037	0	0	0	0
0.58	40.739102144891	568.896844658308	19.3490504929605	-0.0400835871164601	0	-0.0475992332679285	0	0	0	0	0	0	0	74.3402977043144	0	0	0	0
0.59	45.696613295271	573.804314339705	20.7144895012338	-0.0492419602766458	0	-0.0486199731666702	0	0	0	0	0	0	0	81.7263724556198	0	0	0	0
0.6	50.9233230871218	577.863417487184	21.6009413099147	-0.058619630275458	0	-0.0494148341855615	0	0	0	0	0	0	0	89.5018524791845	0	0	0	0
0.61	56.3762038769105	580.44456074192	21.8091372536683	-0.0679991075153599	0	-0.0500138686814375	10.4711380130526	27.7843663270415	1.00918014145937	0.259793934033433	0	0.0563211747154469	0	97.3867006970117	0	0	0.501807867266489	0
0.62	62.0479840235304	580.322902307966	21.1789171639966	-0.077288896614674	0	-0.0504588327638652	18.2132182732224	51.2180569398792	2.03751073403513	0.244110163725349	0	0.055451448657579	0	105.149104525063	0	0	1.07908161663132	0
0.63	67.8499614058427	575.932937209844	19.6794186880274	-0.0864839320995134	0	-0.0507691699269416	22.8608331533898	76.2664302899319	5.63209675980061	0.232840676520067	0	0.0550234435520106	0	112.412924985453	0	0	0.948765802944483	0
0.64	73.4018139162842	565.599889105336	17.3161358061098	-0.0954240528977997	0	-0.0508699254684084	22.9873871389682	101.277870987612	11.3137417291526	0.2255039285008	0	0.0546060996939655	0	118.792359664752	0	0	-0.0102653090069163	0
0.65	78.1900855795904	548.005994561763	14.1066869257694	-0.103940962070054	0	-0.0507227191450517	19.8496677227897	127.959663293049	17.6701927462019	0.221225354259215	0	0.0547103472239324	0	123.847770601923	0	0	-1.6016312301306	0
